<svg viewBox="0 0 330 200" xmlns="http://www.w3.org/2000/svg"><g><g><g><g><g><line x1="50" y1="176.10967464527346" x2="45" y2="176.10967464527346" style="visibility: inherit;" fill="rgb(0, 0, 0)" stroke="rgb(204, 204, 204)" stroke-width="1px"></line><line x1="50" y1="161.20512840792156" x2="45" y2="161.20512840792156" style="visibility: inherit;" fill="rgb(0, 0, 0)" stroke="rgb(204, 204, 204)" stroke-width="1px"></line><line x1="50" y1="146.3005821705696" x2="45" y2="146.3005821705696" style="visibility: inherit;" fill="rgb(0, 0, 0)" stroke="rgb(204, 204, 204)" stroke-width="1px"></line><line x1="50" y1="131.3960359332177" x2="45" y2="131.3960359332177" style="visibility: inherit;" fill="rgb(0, 0, 0)" stroke="rgb(204, 204, 204)" stroke-width="1px"></line><line x1="50" y1="116.49148969586578" x2="45" y2="116.49148969586578" style="visibility: inherit;" fill="rgb(0, 0, 0)" stroke="rgb(204, 204, 204)" stroke-width="1px"></line><line x1="50" y1="101.58694345851386" x2="45" y2="101.58694345851386" style="visibility: inherit;" fill="rgb(0, 0, 0)" stroke="rgb(204, 204, 204)" stroke-width="1px"></line><line x1="50" y1="86.68239722116195" x2="45" y2="86.68239722116195" style="visibility: inherit;" fill="rgb(0, 0, 0)" stroke="rgb(204, 204, 204)" stroke-width="1px"></line><line x1="50" y1="71.77785098381003" x2="45" y2="71.77785098381003" style="visibility: inherit;" fill="rgb(0, 0, 0)" stroke="rgb(204, 204, 204)" stroke-width="1px"></line><line x1="50" y1="56.87330474645808" x2="45" y2="56.87330474645808" style="visibility: inherit;" fill="rgb(0, 0, 0)" stroke="rgb(204, 204, 204)" stroke-width="1px"></line><line x1="50" y1="41.96875850910616" x2="45" y2="41.96875850910616" style="visibility: inherit;" fill="rgb(0, 0, 0)" stroke="rgb(204, 204, 204)" stroke-width="1px"></line><line x1="50" y1="27.064212271754275" x2="45" y2="27.064212271754275" style="visibility: inherit;" fill="rgb(0, 0, 0)" stroke="rgb(204, 204, 204)" stroke-width="1px"></line><line x1="50" y1="12.159666034402353" x2="45" y2="12.159666034402353" style="visibility: inherit;" fill="rgb(0, 0, 0)" stroke="rgb(204, 204, 204)" stroke-width="1px"></line></g><g transform="translate(40, 0)"><text x="0" y="176.10967464527346" dx="0em" dy="0.3em" style="text-anchor: end; visibility: hidden; font-family: Roboto, sans-serif; font-size: 12px; font-weight: 200;" fill="rgb(33, 33, 33)" stroke="none" stroke-width="1px">0.65</text><text x="0" y="161.20512840792156" dx="0em" dy="0.3em" style="text-anchor: end; visibility: inherit; font-family: Roboto, sans-serif; font-size: 12px; font-weight: 200;" fill="rgb(33, 33, 33)" stroke="none" stroke-width="1px">0.7</text><text x="0" y="146.3005821705696" dx="0em" dy="0.3em" style="text-anchor: end; visibility: hidden; font-family: Roboto, sans-serif; font-size: 12px; font-weight: 200;" fill="rgb(33, 33, 33)" stroke="none" stroke-width="1px">0.75</text><text x="0" y="131.3960359332177" dx="0em" dy="0.3em" style="text-anchor: end; visibility: inherit; font-family: Roboto, sans-serif; font-size: 12px; font-weight: 200;" fill="rgb(33, 33, 33)" stroke="none" stroke-width="1px">0.8</text><text x="0" y="116.49148969586578" dx="0em" dy="0.3em" style="text-anchor: end; visibility: hidden; font-family: Roboto, sans-serif; font-size: 12px; font-weight: 200;" fill="rgb(33, 33, 33)" stroke="none" stroke-width="1px">0.85</text><text x="0" y="101.58694345851386" dx="0em" dy="0.3em" style="text-anchor: end; visibility: inherit; font-family: Roboto, sans-serif; font-size: 12px; font-weight: 200;" fill="rgb(33, 33, 33)" stroke="none" stroke-width="1px">0.9</text><text x="0" y="86.68239722116195" dx="0em" dy="0.3em" style="text-anchor: end; visibility: hidden; font-family: Roboto, sans-serif; font-size: 12px; font-weight: 200;" fill="rgb(33, 33, 33)" stroke="none" stroke-width="1px">0.95</text><text x="0" y="71.77785098381003" dx="0em" dy="0.3em" style="text-anchor: end; visibility: inherit; font-family: Roboto, sans-serif; font-size: 12px; font-weight: 200;" fill="rgb(33, 33, 33)" stroke="none" stroke-width="1px">1</text><text x="0" y="56.87330474645808" dx="0em" dy="0.3em" style="text-anchor: end; visibility: hidden; font-family: Roboto, sans-serif; font-size: 12px; font-weight: 200;" fill="rgb(33, 33, 33)" stroke="none" stroke-width="1px">1.05</text><text x="0" y="41.96875850910616" dx="0em" dy="0.3em" style="text-anchor: end; visibility: inherit; font-family: Roboto, sans-serif; font-size: 12px; font-weight: 200;" fill="rgb(33, 33, 33)" stroke="none" stroke-width="1px">1.1</text><text x="0" y="27.064212271754275" dx="0em" dy="0.3em" style="text-anchor: end; visibility: hidden; font-family: Roboto, sans-serif; font-size: 12px; font-weight: 200;" fill="rgb(33, 33, 33)" stroke="none" stroke-width="1px">1.15</text><text x="0" y="12.159666034402353" dx="0em" dy="0.3em" style="text-anchor: end; visibility: inherit; font-family: Roboto, sans-serif; font-size: 12px; font-weight: 200;" fill="rgb(33, 33, 33)" stroke="none" stroke-width="1px">1.2</text></g><line x1="50" y1="0" x2="50" y2="177" fill="rgb(0, 0, 0)" stroke="rgb(204, 204, 204)" stroke-width="1px"></line></g></g><g transform="translate(50, 0)" clip-path="url(#clip_0)"><clipPath id="clip_0"><rect width="280" height="177"></rect></clipPath><g><g><g><line x1="15.32030963837738" y1="0" x2="15.32030963837738" y2="177" fill="rgb(0, 0, 0)" stroke="rgb(66, 66, 66)" stroke-width="1px" opacity="0.25"></line><line x1="35.42253085082549" y1="0" x2="35.42253085082549" y2="177" fill="rgb(0, 0, 0)" stroke="rgb(66, 66, 66)" stroke-width="1px" opacity="0.25"></line><line x1="55.524752063273596" y1="0" x2="55.524752063273596" y2="177" fill="rgb(0, 0, 0)" stroke="rgb(66, 66, 66)" stroke-width="1px" opacity="0.25"></line><line x1="75.62697327572171" y1="0" x2="75.62697327572171" y2="177" fill="rgb(0, 0, 0)" stroke="rgb(66, 66, 66)" stroke-width="1px" opacity="0.25"></line><line x1="95.72919448816982" y1="0" x2="95.72919448816982" y2="177" fill="rgb(0, 0, 0)" stroke="rgb(66, 66, 66)" stroke-width="1px" opacity="0.25"></line><line x1="115.83141570061791" y1="0" x2="115.83141570061791" y2="177" fill="rgb(0, 0, 0)" stroke="rgb(66, 66, 66)" stroke-width="1px" opacity="0.25"></line><line x1="135.933636913066" y1="0" x2="135.933636913066" y2="177" fill="rgb(0, 0, 0)" stroke="rgb(66, 66, 66)" stroke-width="1px" opacity="0.25"></line><line x1="156.03585812551415" y1="0" x2="156.03585812551415" y2="177" fill="rgb(0, 0, 0)" stroke="rgb(66, 66, 66)" stroke-width="1px" opacity="0.25"></line><line x1="176.13807933796224" y1="0" x2="176.13807933796224" y2="177" fill="rgb(0, 0, 0)" stroke="rgb(66, 66, 66)" stroke-width="1px" opacity="0.25"></line><line x1="196.24030055041032" y1="0" x2="196.24030055041032" y2="177" fill="rgb(0, 0, 0)" stroke="rgb(66, 66, 66)" stroke-width="1px" opacity="0.25"></line><line x1="216.34252176285847" y1="0" x2="216.34252176285847" y2="177" fill="rgb(0, 0, 0)" stroke="rgb(66, 66, 66)" stroke-width="1px" opacity="0.25"></line><line x1="236.44474297530655" y1="0" x2="236.44474297530655" y2="177" fill="rgb(0, 0, 0)" stroke="rgb(66, 66, 66)" stroke-width="1px" opacity="0.25"></line><line x1="256.54696418775467" y1="0" x2="256.54696418775467" y2="177" fill="rgb(0, 0, 0)" stroke="rgb(66, 66, 66)" stroke-width="1px" opacity="0.25"></line><line x1="276.6491854002028" y1="0" x2="276.6491854002028" y2="177" fill="rgb(0, 0, 0)" stroke="rgb(66, 66, 66)" stroke-width="1px" opacity="0.25"></line></g><g><line x1="0" y1="176.10967464527346" x2="280" y2="176.10967464527346" fill="rgb(0, 0, 0)" stroke="rgb(66, 66, 66)" stroke-width="1px" opacity="0.25"></line><line x1="0" y1="161.20512840792156" x2="280" y2="161.20512840792156" fill="rgb(0, 0, 0)" stroke="rgb(66, 66, 66)" stroke-width="1px" opacity="0.25"></line><line x1="0" y1="146.3005821705696" x2="280" y2="146.3005821705696" fill="rgb(0, 0, 0)" stroke="rgb(66, 66, 66)" stroke-width="1px" opacity="0.25"></line><line x1="0" y1="131.3960359332177" x2="280" y2="131.3960359332177" fill="rgb(0, 0, 0)" stroke="rgb(66, 66, 66)" stroke-width="1px" opacity="0.25"></line><line x1="0" y1="116.49148969586578" x2="280" y2="116.49148969586578" fill="rgb(0, 0, 0)" stroke="rgb(66, 66, 66)" stroke-width="1px" opacity="0.25"></line><line x1="0" y1="101.58694345851386" x2="280" y2="101.58694345851386" fill="rgb(0, 0, 0)" stroke="rgb(66, 66, 66)" stroke-width="1px" opacity="0.25"></line><line x1="0" y1="86.68239722116195" x2="280" y2="86.68239722116195" fill="rgb(0, 0, 0)" stroke="rgb(66, 66, 66)" stroke-width="1px" opacity="0.25"></line><line x1="0" y1="71.77785098381003" x2="280" y2="71.77785098381003" fill="rgb(0, 0, 0)" stroke="rgb(66, 66, 66)" stroke-width="1px" opacity="0.25"></line><line x1="0" y1="56.87330474645808" x2="280" y2="56.87330474645808" fill="rgb(0, 0, 0)" stroke="rgb(66, 66, 66)" stroke-width="1px" opacity="0.25"></line><line x1="0" y1="41.96875850910616" x2="280" y2="41.96875850910616" fill="rgb(0, 0, 0)" stroke="rgb(66, 66, 66)" stroke-width="1px" opacity="0.25"></line><line x1="0" y1="27.064212271754275" x2="280" y2="27.064212271754275" fill="rgb(0, 0, 0)" stroke="rgb(66, 66, 66)" stroke-width="1px" opacity="0.25"></line><line x1="0" y1="12.159666034402353" x2="280" y2="12.159666034402353" fill="rgb(0, 0, 0)" stroke="rgb(66, 66, 66)" stroke-width="1px" opacity="0.25"></line></g></g></g><g><g><line x1="0" y1="369.8687757308484" x2="280" y2="369.8687757308484" fill="rgb(0, 0, 0)" stroke="rgb(153, 153, 153)" stroke-width="1.5px"></line></g></g><g><g><line x1="35.42253085082549" y1="0" x2="35.42253085082549" y2="177" fill="rgb(0, 0, 0)" stroke="rgb(153, 153, 153)" stroke-width="1.5px"></line></g></g><g><g><g><g><g><path stroke="rgb(238, 51, 119)" stroke-width="2px" d="M35.82055483083196,17.95153526802845L36.222599255080915,26.015824156035062L36.624643679329886,35.45301578041961L37.02668810357884,39.02643623260455L37.42873252782781,44.000121530835116L37.83077695207677,40.33864483481054L38.23282137632573,32.205346574109576L38.634865800574694,47.821933082470856L39.03691022482366,44.05982067920097L39.43895464907262,49.74701740602561L39.84099907332158,56.68988622014547L40.24304349757054,59.705936944878935L40.64508792181951,48.71294287183129L41.047132346068466,54.08888671738416L41.449176770317436,55.29143366967524L41.85122119456639,49.64300585408105L42.253265618815355,58.91179613078357L42.65531004306432,63.19336219525113L43.05735446731328,58.02231435533965L43.45939889156224,62.47110910564635L43.8614433158112,63.84596627842912L44.263487740060164,56.77474429532265L44.66553216430913,58.13069673778956L45.06757658855809,64.51377943035742L45.469621012807046,65.8602084372517L45.871665437056016,72.27621449943918L46.27370986130497,63.94919605581175L46.67575428555394,70.99923905533124L47.0777987098029,65.65772882571082L47.47984313405186,71.22837007239261L47.881887558300825,60.95471520194618L48.28393198254979,65.67023721870176L48.685976406798744,76.9888048615875L49.088020831047714,67.72395899290201L49.49006525529667,72.88411529175747L49.89210967954564,71.49566590215926L50.2941541037946,68.82146387223506L50.69619852804357,69.67743594713791L51.09824295229252,71.5183728996627L51.50028737654148,72.44358532610774L51.90233180079045,80.2406672223661L52.304376225039405,81.36658249998399L52.70642064928837,72.59141178872795L53.10846507353733,77.64194197287588L53.510509497786295,78.8990532360692L53.91255392203526,70.68098573820947L54.31459834628422,75.38096110174476L54.71664277053318,71.08079235622391L55.11868719478215,85.56440984830621L55.5207316190311,88.0478055823075L55.922776043280074,78.69445927969038L56.32482046752903,81.5874160461266L56.72686489177799,78.97850995972757L57.128909316026956,83.4375743849615L57.53095374027592,82.50616106483201L57.932998164524875,78.48711134474111L58.335042588773845,83.17331681542416L58.7370870130228,87.05864755021702L59.139131437271764,88.34608811289264L59.54117586152073,91.14777269922311L59.943220285769684,81.52412784181732L60.345264710018654,83.90811383322726L60.74730913426761,83.33379381186477L61.14935355851658,87.03286675727689L61.551397982765536,100.62257834059888L61.9534424070145,88.67580153438824L62.35548683126346,91.53892649424523L62.757531255512426,86.00069335667636L63.15957567976138,90.45153138140628L63.56162010401035,89.18692218945988L63.96366452825931,92.44964055608715L64.36570895250827,90.03854120146106L64.76775337675724,100.75560438935338L65.1697978010062,100.89877573980938L65.57184222525515,90.05431883352915L65.97388664950412,101.31565702496061L66.37593107375308,96.99852021792503L66.77797549800204,99.58605187709666L67.180019922251,92.25520966901347L67.58206434649996,89.95394964033906L67.98410877074893,108.15979126542895L68.38615319499789,110.37061419137054L68.78819761924686,104.53347665708773L69.19024204349581,91.2297346550004L69.59228646774478,88.07523876238993L69.99433089199374,97.2893758901718L70.39637531624271,105.92915746138381L70.79841974049167,94.71664464486588L71.20046416474062,106.84802685331498L71.6025085889896,100.57162085324373L72.00455301323856,109.25853987701962L72.40659743748752,105.69551347298767L72.80864186173648,97.51584176668109L73.21068628598545,100.86963686977366L73.6127307102344,103.30944867194714L74.01477513448336,104.98717241706456L74.41681955873233,104.61853017590539L74.81886398298128,109.97978021321465L75.22090840723025,115.00685716050455L75.62295283147921,107.10649218405251L76.02499725572817,111.37567422875492L76.42704167997714,104.09228929010182L76.8290861042261,108.55106943367686L77.23113052847506,103.27778680218883L77.63317495272402,114.81981759656188L78.03521937697299,112.74180750813065L78.43726380122196,106.76769951707628L78.8393082254709,118.90297283073137L79.24135264971987,109.90309523573042L79.64339707396884,106.07078303031959L80.0454414982178,107.64063965349384L80.44748592246675,112.82469337929933L80.84953034671572,124.77411755845833L81.25157477096468,120.8874720209931L81.65361919521364,118.40681249795858L82.0556636194626,109.36990721688784L82.45770804371158,108.87586122895301L82.85975246796053,115.93183860810176L83.26179689220949,111.03933349108654L83.66384131645846,112.60007533357278L84.06588574070742,125.09118044613354L84.46793016495639,120.10178858624958L84.86997458920534,116.2305653287789L85.2720190134543,121.38089614279913L85.67406343770327,114.66113512809298L86.07610786195224,116.68168478622208L86.47815228620118,119.53349178253471L86.88019671045015,114.43202187863533L87.28224113469912,123.61654041108211L87.68428555894809,122.73903400051874L88.08632998319703,124.99514654824144L88.488374407446,118.17366600246548L88.89041883169497,122.98522191711317L89.29246325594391,122.78741518534022L89.69450768019288,114.06890536222073L90.09655210444186,120.48263717113714L90.49859652869081,127.60643349353363L90.90064095293977,126.56807696685235L91.30268537718874,129.11152720129311L91.70472980143771,123.2610284290427L92.10677422568666,124.208734641747L92.50881864993562,121.80850906057327L92.91086307418459,121.56283640448555L93.31290749843355,121.79338882984133L93.71495192268252,132.4128723383214L94.11699634693147,123.28920784847969L94.51904077118043,128.07631554046324L94.9210851954294,127.73416479639141L95.32312961967837,125.73546929078911L95.72517404392731,121.52922009832238L96.12721846817628,124.89077964422327L96.52926289242525,128.0065066256033L96.93130731667421,124.51966770615252L97.33335174092316,132.29745398481404L97.73539616517213,131.7124734012434L98.1374405894211,121.64787215569953L98.53948501367005,131.59360813262208L98.94152943791902,131.88055493205914L99.34357386216799,131.55947656595217L99.74561828641694,127.08076117104784L100.1476627106659,136.44368421204868L100.54970713491487,135.63614662477838L100.95175155916382,131.67853727821395L101.3537959834128,132.5786796158661L101.75584040766175,130.28203916414859L102.15788483191072,125.39283882141791L102.55992925615968,125.76151659778445L102.96197368040865,129.60473811185497L103.3640181046576,138.78451269411912L103.76606252890656,130.51536333567847L104.16810695315553,132.9269068803966L104.57015137740449,136.2180889481197L104.97219580165344,142.12956613620096L105.37424022590241,130.3105384004518L105.77628465015138,129.58688167015626L106.17832907440032,129.50230787663796L106.5803734986493,141.03348266516235L106.98241792289826,138.60171958745605L107.38446234714723,130.1985314268511L107.78650677139618,134.31134079156303L108.18855119564515,136.492296375718L108.59059561989412,131.55750436194367L108.99264004414307,135.74003380349717L109.39468446839203,137.09520447140216L109.796728892641,139.17380089075482L110.19877331688996,137.89776712964198L110.60081774113893,140.12516722981727L111.00286216538788,137.9975677595143L111.40490658963685,137.37749615867497L111.80695101388581,139.50710336819384L112.20899543813476,140.2170968112592L112.61103986238373,131.4397584523542L113.01308428663269,141.97555654750002L113.41512871088166,139.48864282797L113.81717313513062,133.81976450053975L114.21921755937957,142.25822135445014L114.62126198362854,139.94034861633463L115.02330640787751,137.97487852961453L115.42535083212645,142.8358106148898L115.82739525637542,140.37931503286052L116.2294396806244,144.44248171288964L116.63148410487337,142.54957451959993L117.03352852912231,149.12911360606103L117.43557295337128,141.73725744693962L117.83761737762025,135.7810414327913L118.2396618018692,140.95480771606591L118.64170622611816,145.28061511369748L119.04375065036713,136.2422173539176L119.44579507461609,147.47546496393045L119.84783949886504,143.30826896435306L120.24988392311401,142.86770346349599L120.65192834736297,146.7708551047802L121.05397277161194,147.45805271232373L121.4560171958609,146.44382459144032L121.85806162010986,141.5386156377937L122.26010604435882,135.39171770094828L122.66215046860779,151.12729385115662L123.06419489285675,153.83521879286604L123.4662393171057,147.81667402500722L123.86828374135467,139.079863570097L124.27032816560364,141.71463928745456L124.67237258985259,145.08408764938952L125.07441701410156,144.71668914048794L125.47646143835053,142.02038421158542L125.8785058625995,146.48548962207065L126.28055028684844,144.88183901669646L126.68259471109741,154.2836553421535L127.08463913534638,150.295929907351L127.48668355959532,148.24753841425485L127.88872798384429,148.6464388844816L128.29077240809326,144.00337315553435L128.69281683234223,146.227308572992L129.09486125659117,159.33146708293833L129.49690568084014,150.90249812939328L129.8989501050891,149.91401526624261L130.30099452933808,155.59039152242596L130.70303895358703,147.26250246621817L131.105083377836,145.11137868864247L131.50712780208497,144.73628680734734L131.9091722263339,139.36352336285321L132.31121665058288,154.7219821249469L132.71326107483185,155.12603520024092L133.11530549908082,151.7620947954469L133.51734992332976,151.41873585432484L133.91939434757873,147.64479022700385L134.3214387718277,148.17716093607712L134.72348319607664,150.08303848005346L135.1255276203256,146.81946726844953L135.52757204457458,157.92938994131734L135.92961646882353,152.47926635039914L136.3316608930725,154.56948278255874L136.73370531732147,147.81251640574604L137.1357497415704,158.4722257689583L137.53779416581938,149.72068597059712L137.93983859006835,150.98296760646141L138.34188301431732,150.55057520329726L138.74392743856626,160.43479973627853L139.14597186281523,154.04061229141047L139.5480162870642,154.2096355052213L139.95006071131314,157.10699863737028L140.3521051355621,152.5879685497153L140.75414955981108,154.05427557864067L141.15619398406005,152.4781292237636L141.558238408309,150.67315390108777L141.960282832558,159.47904479910704L142.36232725680694,151.14337353248732L142.76437168105588,161.72296877070505L143.16641610530488,157.04994686195278L143.56846052955382,149.65027295721202L143.97050495380276,155.0810298601187L144.37254937805176,151.49767731747644L144.7745938023007,154.59195880121436L145.17663822654964,161.44348436481368L145.57868265079864,161.71749634877153L145.98072707504758,161.0110564264422L146.38277149929655,160.08058478930778L146.78481592354552,156.96009609014143L147.18686034779446,154.2554226199055L147.58890477204346,153.24222502003553L147.9909491962924,156.74700921920342L148.39299362054135,162.264027837978L148.79503804479035,163.15637019761448L149.1970824690393,166.17915484414277L149.59912689328826,157.90803328169358L150.00117131753723,157.66546995624995L150.40321574178617,164.0677771959999L150.80526016603514,156.4398784219855L151.2073045902841,151.35171645324266L151.60934901453305,167.50589734615923L152.01139343878202,159.89329647891358L152.413437863031,165.9374088284684L152.81548228727993,163.1574895566463L153.2175267115289,162.40616866742053L153.61957113577787,159.7346850808594L154.02161556002685,157.68259792619776L154.4236599842758,159.20959908929507L154.82570440852476,160.7544389264874L155.22774883277373,167.73215001142435L155.62979325702267,166.0966953954624L156.03183768127164,165.2894243222473L156.4338821055206,163.69193907535018L156.83592652976955,160.9474128700593L157.23797095401855,163.93414704872023L157.6400153782675,161.48095624097547L158.04205980251646,168.52311042446092L158.44410422676543,166.97750658031035L158.84614865101437,163.52073044628668L159.24819307526334,162.47789648347796L159.65023749951231,163.12883041190997L160.05228192376126,168.6838183997494L160.45432634801023,165.88440806669L160.8563707722592,159.5972348987885L161.25841519650814,166.3113458155243L161.66045962075714,166.77417412379282L162.06250404500608,164.3444187853024L162.46454846925502,170.1461810206577L162.86659289350402,163.82167811742386L163.26863731775296,165.47308804149074L163.6706817420019,168.72907248632316L164.0727261662509,169.4198769174138" style="fill: none;" fill="none"></path></g></g></g></g></g></g><g transform="translate(50, 177)" clip-path="url(#clip_1)"><clipPath id="clip_1"><rect width="280" height="23"></rect></clipPath><g><g><line x1="15.32030963837738" y1="0" x2="15.32030963837738" y2="5" style="visibility: inherit;" fill="rgb(0, 0, 0)" stroke="rgb(204, 204, 204)" stroke-width="1px"></line><line x1="35.42253085082549" y1="0" x2="35.42253085082549" y2="5" style="visibility: inherit;" fill="rgb(0, 0, 0)" stroke="rgb(204, 204, 204)" stroke-width="1px"></line><line x1="55.524752063273596" y1="0" x2="55.524752063273596" y2="5" style="visibility: inherit;" fill="rgb(0, 0, 0)" stroke="rgb(204, 204, 204)" stroke-width="1px"></line><line x1="75.62697327572171" y1="0" x2="75.62697327572171" y2="5" style="visibility: inherit;" fill="rgb(0, 0, 0)" stroke="rgb(204, 204, 204)" stroke-width="1px"></line><line x1="95.72919448816982" y1="0" x2="95.72919448816982" y2="5" style="visibility: inherit;" fill="rgb(0, 0, 0)" stroke="rgb(204, 204, 204)" stroke-width="1px"></line><line x1="115.83141570061791" y1="0" x2="115.83141570061791" y2="5" style="visibility: inherit;" fill="rgb(0, 0, 0)" stroke="rgb(204, 204, 204)" stroke-width="1px"></line><line x1="135.933636913066" y1="0" x2="135.933636913066" y2="5" style="visibility: inherit;" fill="rgb(0, 0, 0)" stroke="rgb(204, 204, 204)" stroke-width="1px"></line><line x1="156.03585812551415" y1="0" x2="156.03585812551415" y2="5" style="visibility: inherit;" fill="rgb(0, 0, 0)" stroke="rgb(204, 204, 204)" stroke-width="1px"></line><line x1="176.13807933796224" y1="0" x2="176.13807933796224" y2="5" style="visibility: inherit;" fill="rgb(0, 0, 0)" stroke="rgb(204, 204, 204)" stroke-width="1px"></line><line x1="196.24030055041032" y1="0" x2="196.24030055041032" y2="5" style="visibility: inherit;" fill="rgb(0, 0, 0)" stroke="rgb(204, 204, 204)" stroke-width="1px"></line><line x1="216.34252176285847" y1="0" x2="216.34252176285847" y2="5" style="visibility: inherit;" fill="rgb(0, 0, 0)" stroke="rgb(204, 204, 204)" stroke-width="1px"></line><line x1="236.44474297530655" y1="0" x2="236.44474297530655" y2="5" style="visibility: inherit;" fill="rgb(0, 0, 0)" stroke="rgb(204, 204, 204)" stroke-width="1px"></line><line x1="256.54696418775467" y1="0" x2="256.54696418775467" y2="5" style="visibility: inherit;" fill="rgb(0, 0, 0)" stroke="rgb(204, 204, 204)" stroke-width="1px"></line><line x1="276.6491854002028" y1="0" x2="276.6491854002028" y2="5" style="visibility: inherit;" fill="rgb(0, 0, 0)" stroke="rgb(204, 204, 204)" stroke-width="1px"></line></g><g transform="translate(0, 8)"><text x="15.32030963837738" y="0" dx="0em" dy="0.95em" style="text-anchor: middle; visibility: inherit; font-family: Roboto, sans-serif; font-size: 12px; font-weight: 200;" fill="rgb(33, 33, 33)" stroke="none" stroke-width="1px">-5k</text><text x="35.42253085082549" y="0" dx="0em" dy="0.95em" style="text-anchor: middle; visibility: hidden; font-family: Roboto, sans-serif; font-size: 12px; font-weight: 200;" fill="rgb(33, 33, 33)" stroke="none" stroke-width="1px">0</text><text x="55.524752063273596" y="0" dx="0em" dy="0.95em" style="text-anchor: middle; visibility: inherit; font-family: Roboto, sans-serif; font-size: 12px; font-weight: 200;" fill="rgb(33, 33, 33)" stroke="none" stroke-width="1px">5k</text><text x="75.62697327572171" y="0" dx="0em" dy="0.95em" style="text-anchor: middle; visibility: hidden; font-family: Roboto, sans-serif; font-size: 12px; font-weight: 200;" fill="rgb(33, 33, 33)" stroke="none" stroke-width="1px">10k</text><text x="95.72919448816982" y="0" dx="0em" dy="0.95em" style="text-anchor: middle; visibility: inherit; font-family: Roboto, sans-serif; font-size: 12px; font-weight: 200;" fill="rgb(33, 33, 33)" stroke="none" stroke-width="1px">15k</text><text x="115.83141570061791" y="0" dx="0em" dy="0.95em" style="text-anchor: middle; visibility: hidden; font-family: Roboto, sans-serif; font-size: 12px; font-weight: 200;" fill="rgb(33, 33, 33)" stroke="none" stroke-width="1px">20k</text><text x="135.933636913066" y="0" dx="0em" dy="0.95em" style="text-anchor: middle; visibility: inherit; font-family: Roboto, sans-serif; font-size: 12px; font-weight: 200;" fill="rgb(33, 33, 33)" stroke="none" stroke-width="1px">25k</text><text x="156.03585812551415" y="0" dx="0em" dy="0.95em" style="text-anchor: middle; visibility: hidden; font-family: Roboto, sans-serif; font-size: 12px; font-weight: 200;" fill="rgb(33, 33, 33)" stroke="none" stroke-width="1px">30k</text><text x="176.13807933796224" y="0" dx="0em" dy="0.95em" style="text-anchor: middle; visibility: inherit; font-family: Roboto, sans-serif; font-size: 12px; font-weight: 200;" fill="rgb(33, 33, 33)" stroke="none" stroke-width="1px">35k</text><text x="196.24030055041032" y="0" dx="0em" dy="0.95em" style="text-anchor: middle; visibility: hidden; font-family: Roboto, sans-serif; font-size: 12px; font-weight: 200;" fill="rgb(33, 33, 33)" stroke="none" stroke-width="1px">40k</text><text x="216.34252176285847" y="0" dx="0em" dy="0.95em" style="text-anchor: middle; visibility: inherit; font-family: Roboto, sans-serif; font-size: 12px; font-weight: 200;" fill="rgb(33, 33, 33)" stroke="none" stroke-width="1px">45k</text><text x="236.44474297530655" y="0" dx="0em" dy="0.95em" style="text-anchor: middle; visibility: hidden; font-family: Roboto, sans-serif; font-size: 12px; font-weight: 200;" fill="rgb(33, 33, 33)" stroke="none" stroke-width="1px">50k</text><text x="256.54696418775467" y="0" dx="0em" dy="0.95em" style="text-anchor: middle; visibility: inherit; font-family: Roboto, sans-serif; font-size: 12px; font-weight: 200;" fill="rgb(33, 33, 33)" stroke="none" stroke-width="1px">55k</text><text x="276.6491854002028" y="0" dx="0em" dy="0.95em" style="text-anchor: middle; visibility: hidden; font-family: Roboto, sans-serif; font-size: 12px; font-weight: 200;" fill="rgb(33, 33, 33)" stroke="none" stroke-width="1px">60k</text></g><line x1="0" y1="0" x2="280" y2="0" fill="rgb(0, 0, 0)" stroke="rgb(204, 204, 204)" stroke-width="1px"></line></g></g></g></g></svg>